Patient4_TMGait_0pt6_01_left_41_GRF.mot
version=1
nRows=32
nColumns=19
inDegrees=no
endheader
time	F1x	F1y	F1z	M1x	M1y	M1z	F2x	F2y	F2z	M2x	M2y	M2z	EC1x	EC1y	EC1z	EC2x	EC2y	EC2z
49.88	9.9919	-2.1634	-2.6962	0.94245	7.3658	-7.9047	-56.7112	765.9162	-47.8001	312.8284	70.3442	799.663	-0.0592	0.0182	-0.0073	-0.0462	0.0165	0.9585
49.8921	6.7836	-0.65637	-1.9282	0.3918	5.0722	-4.3102	-51.9483	773.8717	-47.0725	316.9844	68.3836	803.7552	-0.0592	0.0182	-0.0073	-0.0462	0.0165	0.9585
49.9041	4.0456	0.6378	-1.2334	-0.09323	3.0806	-1.2843	-47.2238	782.8031	-46.3365	321.4716	66.2571	808.0521	-0.0592	0.0182	-0.0073	-0.0462	0.0165	0.9585
49.9162	1.9228	1.663	-0.67189	-0.48502	1.5199	1.0389	-42.6353	791.81	-45.6591	325.8475	64.0335	811.8343	-0.0592	0.0182	-0.0073	-0.0462	0.0165	0.9585
49.9283	0.45101	2.4	-0.25427	-0.77656	0.40754	2.6402	-38.188	799.724	-45.1357	329.5946	61.806	814.1423	-0.0592	0.0182	-0.0073	-0.0462	0.0165	0.9585
49.9404	-0.4879	2.8938	0.035926	-0.9807	-0.32235	3.6567	-33.8222	805.2894	-44.7775	332.1911	59.5906	813.918	-0.0592	0.0182	-0.0073	-0.0462	0.0165	0.9585
49.9524	-1.0084	3.1639	0.23308	-1.1084	-0.76057	4.1787	-29.5107	807.3814	-44.574	333.1884	57.4029	810.2281	-0.0592	0.0182	-0.0073	-0.0462	0.0165	0.9585
49.9645	-1.2652	3.234	0.36713	-1.1685	-1.0052	4.3306	-25.2425	805.1876	-44.4385	332.2816	55.1985	802.4129	-0.0592	0.0182	-0.0073	-0.0462	0.0165	0.9585
49.9766	-1.3587	3.0955	0.46528	-1.1558	-1.1359	4.155	-21.0395	798.4013	-44.3022	329.3768	52.9556	790.2845	-0.0592	0.0182	-0.0073	-0.0462	0.0165	0.9585
49.9886	-1.3968	2.7372	0.54048	-1.0589	-1.2125	3.6843	-16.9312	787.2814	-44.0928	324.6083	50.6424	774.1809	-0.0592	0.0182	-0.0073	-0.0462	0.0165	0.9585
50.0007	-1.4279	2.1075	0.6058	-0.85527	-1.2729	2.8811	-12.9392	772.5673	-43.8087	318.3008	48.2859	754.8917	-0.0592	0.0182	-0.0073	-0.0462	0.0165	0.9585
50.0128	-1.4824	1.1469	0.66587	-0.51931	-1.3384	1.7059	-9.1026	755.4301	-43.4614	310.9478	45.9217	733.5998	-0.0592	0.0182	-0.0073	-0.0462	0.0165	0.9585
50.0249	-1.5593	-0.2001	0.7209	-0.028559	-1.4138	0.10463	-5.4356	737.3429	-43.1187	303.1558	43.626	711.7398	-0.0592	0.0182	-0.0073	-0.0462	0.0165	0.9585
50.0369	-1.6153	-1.9429	0.76762	0.62101	-1.4839	-1.9291	-1.9679	719.8888	-42.8854	295.571	41.5032	690.8262	-0.0592	0.0182	-0.0073	-0.0462	0.0165	0.9585
50.049	-1.5796	-3.9952	0.79288	1.3952	-1.5058	-4.2958	1.3046	704.5827	-42.8798	288.8094	39.6584	672.2664	-0.0592	0.0182	-0.0073	-0.0462	0.0165	0.9585
50.0611	-1.3282	-6.128	0.76926	2.2037	-1.3972	-6.7477	4.3724	692.7203	-43.1902	283.3945	38.1707	657.2537	-0.0592	0.0182	-0.0073	-0.0462	0.0165	0.9585
50.0731	-0.71807	-7.8714	0.64921	2.8676	-1.0451	-8.7395	7.2698	685.175	-43.8751	279.6831	37.0814	646.5548	-0.0592	0.0182	-0.0073	-0.0462	0.0165	0.9585
50.0852	0.44685	-8.4493	0.36011	3.095	-0.29633	-9.3996	10.0412	682.3128	-44.9561	277.8237	36.3963	640.4657	-0.0592	0.0182	-0.0073	-0.0462	0.0165	0.9585
50.0973	2.3186	-6.6844	-0.1926	2.4547	1.0126	-7.3869	12.7711	683.8816	-46.4186	277.7188	36.0766	638.6814	-0.0592	0.0182	-0.0073	-0.0462	0.0165	0.9585
50.1094	5.0448	-1.0049	-1.111	0.37325	3.0431	-0.95305	15.5413	689.0623	-48.2163	279.04	36.054	640.3831	-0.0592	0.0182	-0.0073	-0.0462	0.0165	0.9585
50.1214	8.6182	10.4969	-2.487	-3.8397	5.8902	12.0498	18.4425	696.5394	-50.2443	281.2667	36.2054	644.2902	-0.0592	0.0182	-0.0073	-0.0462	0.0165	0.9585
50.1335	12.8521	29.8058	-4.3716	-10.9052	9.5284	33.8439	21.4976	704.6529	-52.3395	283.7443	36.3785	648.8485	-0.0592	0.0182	-0.0073	-0.0462	0.0165	0.9585
50.1456	17.183	58.5804	-6.7106	-21.4223	13.6807	66.3246	24.7185	711.5101	-54.2704	285.7319	36.3704	652.3077	-0.0592	0.0182	-0.0073	-0.0462	0.0165	0.9585
50.1576	20.581	97.3935	-9.2908	-35.5921	17.7156	110.1679	28.0469	715.0901	-55.7534	286.4437	35.9598	652.8405	-0.0592	0.0182	-0.0073	-0.0462	0.0165	0.9585
50.1697	21.3444	144.7363	-11.6347	-52.8461	20.4683	163.7268	31.3965	713.3323	-56.4824	285.0875	34.922	648.6127	-0.0592	0.0182	-0.0073	-0.0462	0.0165	0.9585
50.1818	17.6514	196.2213	-12.9035	-71.5638	20.3582	222.0918	34.6008	704.3118	-56.1831	280.929	33.0902	637.9488	-0.0592	0.0182	-0.0073	-0.0462	0.0165	0.9585
50.1939	9.8571	245.6884	-12.0243	-89.4499	16.3285	278.3235	37.4845	686.5347	-54.6764	273.4009	30.397	619.5777	-0.0592	0.0182	-0.0073	-0.0462	0.0165	0.9585
50.2059	0.90067	287.7398	-8.0422	-104.4984	8.4257	326.0532	39.8768	659.2276	-51.9613	262.212	26.9382	592.8785	-0.0592	0.0182	-0.0073	-0.0462	0.0165	0.9585
50.218	-7.2457	320.935	-1.6269	-116.1913	-1.8432	363.3226	41.6285	622.4894	-48.2202	247.3954	22.9475	558.0101	-0.0592	0.0182	-0.0073	-0.0462	0.0165	0.9585
50.2301	-13.6421	347.5576	6.2029	-125.3925	-12.9685	392.4749	42.6455	577.1604	-43.7829	229.2642	18.7518	515.7814	-0.0592	0.0182	-0.0073	-0.0462	0.0165	0.9585
50.2421	-18.2132	371.5202	14.4238	-133.5675	-23.7506	417.965	42.8291	524.592	-38.9714	208.329	14.6562	467.4471	-0.0592	0.0182	-0.0073	-0.0462	0.0165	0.9585
50.2542	-21.2954	396.4056	22.1009	-142.0715	-33.2768	443.8053	42.0516	466.4362	-33.9895	185.225	10.8755	414.5089	-0.0592	0.0182	-0.0073	-0.0462	0.0165	0.9585
